<svg width="100" height="100" viewBox="0 0 100 100" fill="none" xmlns="http://www.w3.org/2000/svg">
<g clip-path="url(#clip0_160_2)">
<path d="M47.75 97.75C47.75 92.6368 47.5 87.8242 47.5 82.75C47.5 81.1029 47.25 79.3355 47.25 77.625C47.25 75.5371 47.5 73.5041 47.5 71.4445C47.5 68.1821 47.75 64.8156 47.75 61.5C47.75 60.1785 50.7423 60.75 51.875 60.75C53.6721 60.75 54.5 60.1728 54.5 62.5C54.5 73.0422 55.0263 83.7231 54.5 94.25C54.4375 95.5 53.9407 98.1653 52.625 98.75C51.6029 99.2043 48.8453 99.4655 48.75 97.75C48.6537 96.0165 48.75 94.2503 48.75 92.5139C48.75 91.1006 48.6251 89.4997 49.0139 88.1389C49.459 86.5809 49.7247 91.5507 49 93" stroke="black" stroke-width="3" stroke-linecap="round"/>
<path d="M48.75 99.75C48.75 97.2494 48.5 94.79 48.5 92.3056C48.5 91.7593 48.5 91.213 48.5 90.6667C48.5 89.8639 48.3264 92.2637 48.1944 93.0556C47.9861 94.3053 47.0739 96.0089 47.6944 97.25C47.8642 97.5896 48 98.7269 48 98.3472C48 97.8981 48 97.4491 48 97C48 95.1714 47.5 93.2619 47.5 91.5C47.5 89.7178 47.25 87.7778 47.25 85.875C47.25 83.5072 47.75 81.2591 47.75 78.875C47.75 76.3962 47.9276 73.8169 47.4861 71.3889C47.0894 69.207 47.25 66.8857 47.25 64.6389C47.25 62.6239 47.3248 60 49.8056 60C50.7705 60 51.733 59.75 52.75 59.75C53.9259 59.75 53.9235 59.9044 54.5556 60.6944C55.2947 61.6184 55.25 64.5623 55.25 65.75C55.25 67.7894 55.75 69.7986 55.75 71.75C55.75 73.875 55.75 76 55.75 78.125C55.75 82.3532 55.25 86.4484 55.25 90.6111C55.25 92.6491 54.3138 94.7141 53.7639 96.6389C53.4879 97.6048 53.36 98.4864 52.3889 98.7639C51.4863 99.0218 50.524 99 49.5 99C47.1568 99 46.25 98.051 46.25 95.75C46.25 93.6481 46.25 91.5463 46.25 89.4444C46.25 84.4825 46.75 79.4806 46.75 74.5C46.75 70.7922 47.2685 66.7084 48.75 63.375C49.5259 61.6291 51.5417 59.5372 52.7361 62.125C53.5816 63.9568 54.5 65.7544 54.5 67.875C54.5 70.0538 54.75 72.2876 54.75 74.5C54.75 79.2258 53.7261 83.6825 53.1944 88.3611C52.9446 90.5596 52.2599 92.9209 52 95C51.9274 95.5808 51.3363 95.0782 51.1111 95.0139C50.5538 94.8547 50.5599 95.2376 50.3056 95.5556C50.2766 95.5918 50 96.909 50 96.125C50 95.0093 50 93.8935 50 92.7778C50 89.6691 50.1636 86.6975 49.3056 83.6944C48.4064 80.5473 48.75 77.0065 48.75 73.75C48.75 72.1054 47.7541 63.75 50.125 63.75C51.725 63.75 52.6355 67.0839 52.7361 68.2917C53.0924 72.567 52.2065 76.7351 52.0139 80.9722C51.8724 84.0852 51 87.2988 51 90.375C51 90.5067 50.9691 90.8854 50.75 90.6389C50.2466 90.0726 50.5 88.6855 50.5 88.0278C50.5 82.5711 50.4252 76.9159 51.5 71.5417C52.0539 68.7724 52 66.0703 52 63.2639C52 62.9405 52 61.8743 52 62.8056C52 64.0515 51.5913 65.1102 51.125 66.25C49.4691 70.2977 50 74.9596 50 79.25" stroke="#17D064" stroke-width="3" stroke-linecap="round"/>
<path d="M52 98.25C52.3003 96.6733 52.75 95.0851 52.75 93.5" stroke="#17D064" stroke-width="3" stroke-linecap="round"/>
<path d="M55 97C55 92.3775 57.6988 88.2922 59.875 84.375C60.6567 82.968 61.7789 82.0888 62.75 80.875C63.8611 79.4861 64.6791 77.7357 66.125 76.6111C68.9527 74.4117 70.3377 71.2298 73.125 69C74.3523 68.0181 74.8042 65.9458 75.875 64.875C76.5695 64.1805 77.3226 62.8692 77.8056 62C78.3206 61.0728 79.0577 60.3701 79.5 59.375C80.2821 57.6152 80.7182 55.7573 81.625 54.125C82.1809 53.1244 82.4138 51.8112 82.9444 50.75C83.3745 49.8899 83.8077 49.0529 84.0139 48.125C84.2256 47.1725 84.6942 46.2544 84.75 45.25C84.759 45.0886 85 44.211 85 44.5C85 45.1955 84.7793 45.5686 84.3611 46.1389C83.3379 47.5341 81.9457 48.5514 80.8056 49.8055C80.2099 50.4607 79.7519 51.2481 79.125 51.875C77.9487 53.0513 76.4262 54.209 75.125 55.25C74.2791 55.9267 73.5459 56.9939 72.75 57.75C71.7999 58.6526 70.811 59.439 69.875 60.375C68.3779 61.872 67.6779 64.2934 65.8472 65.5139C63.991 66.7514 63.0966 70.0845 62.1389 72C60.934 74.4098 60.514 77.0935 59.4444 79.5C59.0944 80.2876 58.75 81.5106 58.75 82.375C58.75 82.6458 58.1915 84.5974 58.0556 84.4444C57.5834 83.9132 57.9679 80.5934 58.125 80.0278C58.2969 79.409 58.3995 78.7679 58.5139 78.1389C58.6267 77.5183 59.2014 77.1 59.25 76.4444C59.342 75.2025 60.4109 73.2126 61.0278 72.1111C61.8075 70.7188 62.5025 69.4377 63.0556 67.9444C64.1268 65.0521 66.8376 62.407 68.6944 60C71.5358 56.3167 74.7032 52.6669 77.9444 49.3055C80.3333 46.8282 83.7925 45.5964 86.1944 43.1944C86.6481 42.7407 86.2784 45.8197 86.1111 46.25C85.6613 47.4068 85.3593 48.6425 84.8056 49.75C83.0442 53.2728 81.0062 56.9546 78.6389 60.1111C74.7733 65.2652 71.531 70.8525 67.625 75.9861C66.3229 77.6974 65.1326 79.4809 63.875 81.2222C63.7129 81.4467 62.7742 82.5748 62.75 81.9444C62.6911 80.4133 64.1081 78.7874 64.8611 77.5278C66.1842 75.3146 67.6707 73.2805 69.25 71.25C69.9365 70.3673 70.556 69.4629 71.125 68.5C72.1972 66.6855 72.8449 64.6094 74 62.8611C74.6586 61.8643 75.2095 61.081 75.75 60C75.9156 59.6687 76.1372 59.4329 76.3472 59.1389C77.2339 57.8975 74.1725 61.2798 73.125 62.3889C68.3708 67.4227 54.4831 82.7941 58.5556 77.1944C61.7268 72.8339 65.6314 68.8927 69 64.6666C70.4455 62.8532 71.9694 61.0028 73.5972 59.375C74.4775 58.4947 72.6807 61.7039 72.0278 62.7639C68.4064 68.6428 64.3139 74.1666 60.5556 79.9444C60.106 80.6355 59.6861 81.3409 59.2778 82.0555C58.9285 82.6667 59.8503 80.7643 60.2222 80.1666C63.8098 74.4023 67.5198 68.6518 71.4444 63.1111C73.4076 60.3395 75.6174 57.3116 77.9444 54.8055C78.45 54.2611 78.7262 53.5237 79.25 53C80.0734 52.1766 78.6293 55.0192 78.5139 55.25C77.926 56.4257 77.3042 57.6416 76.75 58.75" stroke="#17D064" stroke-width="3" stroke-linecap="round"/>
<path d="M47 75C46.5522 74.235 45.3237 71.7889 44.3611 71.5139C43.5212 71.2739 41.6579 69.5188 41.1389 68.7639C38.8932 65.4975 33.0844 64.5109 29.5556 64.0556C27.2641 63.7599 24.939 63.75 22.625 63.75C21.5693 63.75 19.8329 63.4333 18.8611 63.875C17.9301 64.2982 16.7218 64.4171 15.9444 65.1945C15.3365 65.8024 14.2355 66.7348 13.5 67.1945C13.08 67.457 12.6975 67.9485 12.4028 68.3611C12.3157 68.483 13.6646 68.5081 13.875 68.625C14.871 69.1783 16.1246 69.4463 17.1389 69.7361C17.7852 69.9208 18.5362 69.6175 19.1944 69.8056C20.3618 70.1391 21.57 70.3755 22.75 70.6945C25.1806 71.3514 27.8775 71.9593 30.0556 73.25C31.2385 73.951 32.7557 74.0184 33.875 74.8889C35.0725 75.8203 36.756 76.8916 38.125 77.5C39.4005 78.0669 40.4937 79.5618 41.375 80.6389C41.8453 81.2137 42.7023 81.9551 43 82.625C43.1934 83.0601 43.702 84.0162 44.1111 84.25C45.0227 84.7709 45.2844 86.5909 46.25 87.1945C46.8952 87.5977 45.9412 86.9012 45.75 86.8056C45.1447 86.5029 44.6174 86.0374 44 85.6945C42.779 85.0161 41.6777 84.1321 40.5 83.375C39.0102 82.4173 37.6989 80.6995 36.125 80C34.9168 79.463 34.059 78.6859 32.9444 78C31.3474 77.0172 29.4402 76.4456 27.75 75.6945C26.2278 75.0179 24.6188 74.2125 23 73.75C22.0767 73.4862 19.1625 72.0531 18.75 71.125C18.5385 70.6491 17.1675 69.7786 16.6944 69.3056C16.4028 69.0139 16.0972 68.7361 15.8056 68.4445C15.1091 67.748 15.3156 67.8202 16.3056 67.6945C19.0183 67.35 21.8332 67 24.5694 67C25.9367 67 26.9436 67.4269 28.2361 67.75C31.262 68.5065 22.119 66.25 19 66.25C18.4657 66.25 16.885 66.0532 17.4167 66C21.2859 65.6131 25.0673 64.9261 29 65.3056C31.2481 65.5225 34.7927 67.2324 36.5 68.75C37.2153 69.3858 38.2317 69.8113 39.0556 70.3056C40.4444 71.1389 41.5314 72.0578 42.6944 73.1945C43.6353 74.1139 44.7466 74.8563 45.5 75.9445C45.6531 76.1656 47.1376 77.6691 46.25 77.25C43.1799 75.8002 39.9548 74.7135 36.9167 73.1945C33.353 71.4126 29.7693 69.3985 25.875 68.3889C24.8321 68.1185 23.2292 67.75 22.1528 67.75C21.3062 67.75 23.832 67.9697 24.6667 68.1111C27.4265 68.5789 30.2111 69.5398 32.8333 70.5C35.875 71.6139 38.6679 73.1016 41.25 75.0556C43.581 76.8196 39.4638 74.5348 38.8889 74.25C35.9803 72.8093 33.1104 71.6362 30.3056 70C29.3729 69.456 27.5919 68.75 29.6111 68.75C32.8944 68.75 35.1506 69.3457 37.5972 71.6111C38.1185 72.0938 39.7938 73.1389 39.0833 73.1389C38.3342 73.1389 36.7659 71.9672 36.125 71.6111C33.4109 70.1033 30.6315 67.9214 27.4028 67.7639C25.8625 67.6888 24.3064 67.75 22.7639 67.75C21.0483 67.75 23.3287 69.0961 23.8611 69.5556C25.86 71.2807 27.9194 73.5506 30.25 74.8056C30.5382 74.9608 33.1515 76.7216 32 75.8333C31.0612 75.1091 30.1851 74.5994 29.1528 74C28.6627 73.7154 27.2114 72.9798 27.7778 73C29.1931 73.0506 30.6004 73.8656 31.8889 74.3611C34.508 75.3685 37.0752 76.4238 39.6111 77.625C41.2946 78.4224 42.7151 79.4435 43.875 80.8611C44.0738 81.1041 45.1973 82.4551 44.875 81.875C44.0812 80.4462 43.2963 79.0166 42.6389 77.5139C42.0616 76.1944 44.1665 76.8894 44.6944 77.1945C45.5269 77.6755 46.3585 78.16 47 78.8889C47.6927 79.6761 48.0238 80.6706 48.6944 81.4445C49.3767 82.2316 49.6622 83.512 49.9444 84.5C50.3387 85.88 49.75 84.6247 49.75 83.9445C49.75 81.969 52.2827 84.6101 52.625 85.1806C53.3803 86.4395 53.8186 87.8477 54.5 89.1389C54.8674 89.8351 55.2262 89.0957 55.5139 88.7361C55.7953 88.3844 60.3294 83.8218 59.9583 83.3889C59.5717 82.9378 57.6387 83.243 57.1111 83.1945C55.7872 83.0727 54.4741 82.8736 53.1667 82.6389C51.0232 82.2542 49.9824 81.008 48.375 79.75C46.9044 78.5991 45.6892 77.1887 44.1528 76.125C42.7918 75.1828 44.0907 77.3313 44.2361 77.8889C45.6686 83.38 44.75 89.0716 44.75 94.625C44.75 95.9934 45.4242 97.3852 45.5 98.75C45.5475 99.6046 46.0426 102.053 46.5556 102.694C47.7309 104.164 50.6363 103.75 52.3611 103.75C54.1068 103.75 54.25 103.154 54.25 101.5C54.25 98.192 54.0555 94.8057 54.25 91.5C54.2695 91.1681 55.2369 91.5724 55.625 91.4861C56.1439 91.3708 56.5 89.6212 56.5 90.1528C56.5 91.3935 56.5 92.6343 56.5 93.875C56.5 95.1667 56.5 96.4583 56.5 97.75C56.5 99.4841 56.0848 101.054 56 102.75C55.9597 103.556 55.469 105.918 54.4444 106C52.5752 106.15 50.6833 106.934 48.8056 107.194C47.086 107.433 45.2345 107.25 43.5 107.25" stroke="#17D064" stroke-width="3" stroke-linecap="round"/>
<path d="M58.5 84.5C58.5 82.2285 58.52 79.8301 59.4444 77.75C59.7728 77.0111 60.0333 76.1958 60.2639 75.3889C60.4479 74.7449 61.25 74.0495 61.25 73.375C61.25 72.7395 62.068 71.415 62.4444 70.9444C63.0137 70.2329 63.4284 68.7732 63.75 67.8889C64.219 66.5991 65.0954 65.5915 65.8056 64.4444C66.2886 63.6642 67.4908 61.25 68.5 61.25" stroke="#08C456" stroke-width="3" stroke-linecap="round"/>
<path d="M59 86C59.3582 84.9464 59.7038 83.5904 60.5 82.75C60.8109 82.4218 61.2811 81.7464 61.25 82.5556C61.2262 83.1749 60.5034 83.748 60 84.0556C59.6948 84.2421 58.6564 84.893 59.5139 84.625C61.2084 84.0955 62.6755 82.8815 63.75 81.5C64.6583 80.3322 66.2111 79.2468 66.9444 78C67.2899 77.4127 67.1302 77.5322 66.5556 77.8889C65.5816 78.4934 64.5105 78.828 63.5556 79.5C63.131 79.7987 62.7135 80.2127 62.25 80.4444C61.4418 80.8486 63.4056 79.028 64.1389 78.5C65.3196 77.6499 66.2099 76.5401 67.2361 75.5139C68.1717 74.5783 68.3755 74.5507 67.4444 75.8056C65.7311 78.1148 63.3879 80.3511 61.125 82.1111C60.5576 82.5524 60.75 81.2238 60.75 80.9722C60.75 79.1319 61.8356 77.2843 62.375 75.5417C62.5735 74.9003 64.6189 70.7437 63.5 73.4167C63.3526 73.7688 62.031 76.5275 62 76C61.8377 73.2406 63.1918 71.0498 64.5139 68.7361C67.5857 63.3605 70.4173 57.8327 74.75 53.5" stroke="#08C456" stroke-width="3" stroke-linecap="round"/>
<path d="M37 66.25C38.6388 66.8304 40.755 68.2339 41.9444 69.5556C42.8355 70.5456 44.5756 71.8547 44.75 73.25C44.9476 74.8304 45.75 76.0074 45.75 77.75C45.75 78.625 45.75 79.5 45.75 80.375C45.75 81.6189 45.5 79.1008 45.5 78.625C45.5 76.9543 45.5 79.1551 45.5 79.6944C45.5 81.249 45.4713 82.8463 45.2361 84.375C44.9566 86.1917 45 88.0142 45 89.875C45 93.7877 45.5 97.5283 45.5 101.5" stroke="#08C456" stroke-width="3" stroke-linecap="round"/>
<path d="M29.5 64.5C31.2906 64.5 34.0074 64.9763 35.625 65.875C36.3514 66.2786 38.365 67.238 36.3889 66.25C35.2189 65.665 33.9331 65.3625 32.8611 64.75C32.091 64.3099 30.5097 63.5 29.625 63.5C29.2569 63.5 28.5278 63.0069 28.5278 63.375C28.5278 63.62 30.6119 64.5004 30.8889 64.6389C32.4965 65.4427 33.9756 66.2331 35.4444 67.25C36.6625 68.0933 37.7959 68.7959 38.875 69.875C39.896 70.896 41.3772 71.4736 42 72.875C42.3451 73.6514 42.5813 75.1017 43.0556 75.6944C43.6571 76.4464 42.7167 75.7272 42.4444 75.4444C41.6785 74.649 41.018 73.768 40.2361 72.9861C38.0645 70.8145 35.7416 68.8542 33 67.5556C29.3115 65.8084 25.467 63 21.25 63" stroke="#08C456" stroke-width="3" stroke-linecap="round"/>
<path d="M60 78C60 75.2221 61.1921 72.6175 62.6389 70.25C63.6545 68.588 64.5184 66.199 65.75 64.75C67.398 62.8112 68.2732 59.9768 70.125 58.125C71.2318 57.0182 72.2853 55.8095 73.0556 54.5C73.8335 53.1775 75.9865 52.475 76.75 51.1389C77.3693 50.0552 78.3415 49.1081 79.25 48.25C80.2049 47.3481 81.5941 46.8247 82.625 46C83.4642 45.3287 84.0313 44.4843 85 44" stroke="#08C456" stroke-width="3" stroke-linecap="round"/>
<path d="M65.25 73.5C65.25 71.8057 64.598 72.8679 64.5 73.75C64.4374 74.3132 64.032 74.7066 64 75.25C63.9391 76.285 63.0357 77.5397 62.5555 78.5C62.1454 79.3202 61.8355 80.6431 61.3055 81.3056C60.6972 82.066 60.8019 83.4351 60.1944 84.1944C59.903 84.5587 59.6706 85.0477 59.4444 85.5C58.9177 86.5535 59.8304 83.9521 59.9444 83.6944C60.7977 81.7668 61.4903 79.7719 62.25 77.8056C62.6519 76.7653 62.7206 75.616 63.5 74.75C64.5165 73.6205 65.5433 71.6247 66.1944 70.25C66.6868 69.2105 67.2811 68.18 67.75 67.125C68.7697 64.8307 70.1747 63.0355 71.375 60.875C72.7052 58.4807 74.4412 56.0588 76.375 54.125C77.5109 52.9891 78.4252 51.864 79.3889 50.625C79.9574 49.8941 80.7136 49.2864 81.375 48.625C81.9472 48.0528 82.8553 47.8296 83.25 47.1389C83.6522 46.4349 84.7897 45.9165 85.25 45.1111C85.677 44.3638 86.2206 43.3897 87 43" stroke="#099D47" stroke-width="2" stroke-linecap="round"/>
<path d="M43.75 81.75C43.75 80.3152 43.5117 79.365 43.2361 78.125C43.074 77.3953 42.1133 77.247 41.75 76.6111C40.9616 75.2315 38.9719 74.4942 37.8055 73.4444C37.1856 72.8865 36.5348 72.4021 35.875 71.8889C35.2309 71.3879 33.9821 71.2277 33.5 70.625C33.1441 70.1802 32.1381 69.538 31.625 69.1389C31.2178 68.8222 30.5771 68.147 30.1111 68.0139C27.1281 67.1616 24.2838 65.25 21.125 65.25C19.508 65.25 18.164 64.75 16.5 64.75C15.1323 64.75 15.9984 64.25 16.75 64.25C17.6114 64.25 18.3454 63.75 19.25 63.75" stroke="#099D47" stroke-width="2" stroke-linecap="round"/>
<path d="M46 68.5C46 71.3759 47.25 73.9813 47.25 76.875C47.25 77.9994 47.75 79.0006 47.75 80.125C47.75 81.387 48 82.6929 48 84.0556C48 88.9416 47.4308 103.577 47.25 98.6945C47.1067 94.8255 46 91.0175 46 87.1389C46 84.4623 46.25 81.8245 46.25 79.1945C46.25 77.7662 46.5 76.4127 46.5 74.9445C46.5 72.9124 45.75 70.9931 45.75 68.9861C45.75 67.3549 45.25 65.7661 45.25 64.125C45.25 63.1667 45.25 60.2917 45.25 61.25" stroke="#099D47" stroke-opacity="0.8" stroke-width="2" stroke-linecap="round"/>
<path d="M51.25 24.25C52.0183 22.99 52.7412 21.0036 53.6944 19.9445C54.7644 18.7556 55.7288 17.5213 56.875 16.375C58.8872 14.3628 61.7468 11.9181 64.375 10.75C65.8656 10.0875 67.3755 8.99994 69.0278 8.7639C70.3767 8.5712 71.8855 8.75001 73.25 8.75001C76.3999 8.75001 77.3059 11.869 78.0556 14.3056C79.3661 18.5648 78.183 23.2739 77.25 27.4722C76.7682 29.6403 75.0248 31.5616 74.0556 33.5C73.0971 35.417 72.1684 37.0538 70.6111 38.6111C69.2343 39.9879 67.6964 41.0835 66.625 42.75C65.4112 44.6382 63.0805 45.3925 61.75 47.0556C60.6115 48.4787 58.338 49.2232 56.875 50.3611C55.5681 51.3776 55.0183 53.0013 53.9444 54.1945C53.5473 54.6357 53.2059 55.1019 52.6389 55.2639C52.4795 55.3094 52.509 55.8527 52.3056 55.6945C52.1018 55.536 51.979 55.3291 51.75 55.1945C50.5732 54.5022 49.6096 53.5487 48.375 53C46.7328 52.2701 44.8103 51.3837 43.5 50.1389C42.6471 49.3287 41.7379 48.7601 40.75 48.125C39.789 47.5072 38.9545 46.5455 38 46C33.7181 43.5532 30.2464 38.2564 28 34C26.4994 31.1567 25 27.1543 25 23.9445C25 19.9354 28.1127 14.9576 31.75 13.1389C32.6914 12.6682 33.7956 12.3548 34.8056 12.0556C35.8669 11.7411 37.0247 11.989 38.0556 11.6945C39.8299 11.1875 41.4544 11.6149 43.125 11.9861C45.298 12.469 48.3836 14.875 49.5556 16.75C50.1757 17.7422 51.251 18.6887 52 19.625C52.2972 19.9965 53.7292 22.2084 53.25 21.25" stroke="#C55E00" stroke-width="7" stroke-linecap="round"/>
<path d="M49 100.5C51.1335 100.5 53.2744 100.25 55.3611 100.25C56.2699 100.25 54.8909 99.8226 54.6944 99.75C53.3998 99.2715 51.923 98.7573 50.5556 98.5555C49.7404 98.4353 48.1843 97.9253 47.375 98.375C46.8241 98.681 46.4979 99 47.4028 99C49.1343 99 50.8657 99 52.5972 99C53.5357 99 54.861 99.2501 55.5556 98.5555C55.5667 98.5443 54.5788 98.75 54.2361 98.75C53.1667 98.75 52.0972 98.75 51.0278 98.75C50.626 98.75 49.3199 98.4773 50.5 98.5C51.9032 98.527 53.2836 98.75 54.6944 98.75C55.7963 98.75 56.8981 98.75 58 98.75" stroke="#099D47" stroke-opacity="0.8" stroke-width="2" stroke-linecap="round"/>
<path d="M52 51.5C49.259 51.3808 46.3166 50.1657 44 48.75C42.2681 47.6916 40.5964 46.4113 39.0278 45.125C37.399 43.7894 36.2355 42.0663 34.7361 40.6111C32.9217 38.8501 31.5762 37.2203 30.3056 35.0555C30.132 34.7598 29.2754 32.3464 29.4028 32.3889C31.1672 32.977 33.3368 34.4476 34.6945 35.6944C34.9529 35.9318 37.7222 37.7306 37.7222 37.6111C37.7222 36.6073 35.3934 34.6434 34.6945 33.9444C33.4936 32.7436 31.7582 30.6336 31.2639 28.9861C30.4217 26.1787 29.5 23.8868 29.5 20.875C29.5 20.2934 29.2846 19.2648 29.5556 18.75C30.2098 17.507 32.1632 16.8492 33.375 16.375C36.3758 15.2008 40.2933 14.8319 42.9861 16.9861C45.9514 19.3584 48.25 21.4686 48.25 25.4861C48.25 28.214 48.5914 33.75 44.75 33.75C42.1749 33.75 40.4668 32.232 39.2778 29.9861C38.5385 28.5896 38.5123 26.8989 38.5 25.3611C38.4948 24.7066 38.0264 21.3552 38.8056 21.0555C41.1391 20.158 43.563 22.6074 44.5972 24.3611C45.926 26.6143 45.1639 28.238 42.6945 28.75C40.5497 29.1946 34.6204 29.7903 33.6389 26.9861C32.6311 24.1066 36.4298 24.4656 38.25 24.5C41.6973 24.565 43.75 27.341 43.75 30.5972C43.75 31.8509 42.6992 31.7696 41.6389 31.75C38.5273 31.6924 35.737 30.0326 33.5833 27.8611C32.0316 26.2965 30.0798 20.4693 33.7778 20.2639C38.9216 19.9781 42.3349 26.836 43.5 31C43.8062 32.0942 46.2318 40.2142 43.7222 39.9861C42.0262 39.8319 40.3009 38.5816 40.25 36.75C40.1676 33.7832 46.1345 37.9982 46.8472 38.6528C47.4874 39.2407 50.9917 43.4685 49.4445 44.5C48.0591 45.4236 44.9916 45.3361 44 43.8889C42.6372 41.9 42.7811 39.2093 45.3889 38.875C49.2201 38.3838 51.9261 40.1222 53.1945 43.8333C53.5754 44.9481 53.8013 46.6709 52.8611 47.6111C52.5013 47.971 51.3041 47.921 51.5556 47.1944C51.7167 46.7289 51.9809 46.594 52.375 46.375C53.0588 45.9951 53.0046 46.7372 53.1389 47.2361C53.1773 47.3788 53.5155 48.6103 53.75 48.3889C54.8164 47.3817 55.6416 46.1765 56.8056 45.1944C58.9795 43.3602 60.7323 41.0177 62.75 39C65.4299 36.3201 67.8749 32.5593 69 28.9028C69.1925 28.2773 69.28 28.9421 69.1945 29.25C68.8208 30.5953 67.6494 32.0604 66.9445 33.25C65.9644 34.9038 64.8189 36.5221 63.4028 37.8333C63.1359 38.0804 61.7049 39.1277 62.6806 38.1944C64.3732 36.5754 65.8107 34.6426 67.3611 32.8889C69.6021 30.354 72.028 28.0013 74.25 25.4444C75.7342 23.7366 77 21.472 77 19.1389C77 18.7389 77.1896 17.6794 76.8889 17.3611C76.5726 17.0262 76.0817 17.3983 75.75 16.9444C75.2422 16.2495 74.8069 14 73.9861 14C71.7009 14 70.319 14.3776 68.6111 16.0417C64.8486 19.7077 61.7565 24.5235 59.1111 29.0278C57.6458 31.5227 56.2242 33.975 55.0139 36.5972C54.7182 37.2379 54.5164 36.5717 54.5 36.1944C54.4398 34.809 54.1958 33.482 54.25 32.0833C54.3717 28.9449 56.5885 27.089 58.7917 25.1111C61.3504 22.8141 64.1363 20.7833 66.7083 18.5139C66.8561 18.3835 67.9266 17.0575 68.1945 17.1111C68.6579 17.2038 67.4346 17.6762 67.0278 17.9167C65.3232 18.9239 63.6097 19.9179 61.9167 20.9444C58.2312 23.1791 54.6293 25.6341 51.6528 28.7778C49.7158 30.8236 48.162 33.0636 46.5278 35.3333C46.4645 35.4212 45.7379 36.511 46.1111 35.8889C46.6508 34.9894 47.6344 34.2466 48.3611 33.5278C50.5928 31.3202 52.8833 29.2038 55.2222 27.1111C59.4726 23.3082 63.9515 19.0614 66.9722 14.1528C67.3074 13.6081 66.9335 13.8407 66.5833 14.0555C64.9901 15.0332 63.422 16.3779 62.1945 17.7778C59.6402 20.6905 56.9571 24.7333 56.5139 28.7222C56.3759 29.9645 59.7181 27.5976 59.9445 27.4444C63.519 25.0257 67.1452 22.5885 70.6389 20.0555C72.0797 19.011 73.4352 17.7871 74.6945 16.5278C75.6696 15.5527 74.3778 17.8685 74.1806 18.1528C70.8138 23.0048 66.7349 27.5876 62.75 31.9444C60.9504 33.912 58.6193 35.33 56.8889 37.375C56.61 37.7046 54.9787 39.5213 56 38.5" stroke="#C55E00" stroke-width="7" stroke-linecap="round"/>
<path d="M27.5 27.25C27.5 28.2837 27.3576 29.4438 27.875 30.375C28.0899 30.7619 28.6252 31.5007 28.7361 31.8889C29.0707 33.0601 29.5721 34.4122 30.0555 35.5C30.606 36.7385 31.0529 37.8911 31.75 39.1111C32.1981 39.8953 33.2452 41.5838 34 42.0556C35.2736 42.8516 35.9861 44.6034 37.375 45.375C38.8784 46.2102 40.0339 48.145 41.25 49.3611C43.3116 51.4227 45.7285 53.1174 47.8055 55.1944C48.583 55.9719 49.031 57.0748 49.875 57.75C49.9259 57.7908 50.2222 58.3211 50.2222 58.375C50.2222 58.6348 49.8458 58.0008 49.75 57.9444C49.0633 57.5405 48.4331 57.1672 47.75 56.8056C45.014 55.3571 43.4342 52.1345 40.75 50.5556C39.6701 49.9203 38.6985 48.1454 37.875 47.1389C37.0012 46.071 35.7219 45.1995 35.0555 44C34.6169 43.2104 34.1529 42.5286 33.9861 41.6111C33.8061 40.6209 32.8786 39.9769 32.5 39.125C32.1119 38.2519 31.5096 37.5673 31.0555 36.75C30.5716 35.879 30.2837 34.8005 29.75 34" stroke="#C55E00" stroke-width="7" stroke-linecap="round"/>
<path d="M50.25 56.25C51.3719 57.1264 51.5 57.7974 51.5 59.125C51.5 59.7561 51.3159 60.75 50.625 60.75C49.7462 60.75 47.4077 58.7875 46.9445 58C46.4985 57.2419 45.6555 56.5749 45.1111 55.875C44.4328 55.0029 43.9997 54.2914 43.125 53.6111C42.3565 53.0134 41.4206 52.3571 40.9445 51.5C40.4182 50.5528 39.7421 48.9921 39 48.25C38.3841 47.6341 37.2903 46.4371 37 45.6389C36.9166 45.4096 35.4817 43.5278 35.625 43.5278C35.9847 43.5278 37.7833 45.763 38 46.0556C38.8975 47.2671 39.9761 48.6659 41 49.75C42.5506 51.3918 44.5312 52.9062 45.625 54.875C46.4322 56.328 47.0112 57.6438 48.5 58.3056C50.0213 58.9817 51.4277 59.25 53.125 59.25C54.5506 59.25 55.8386 56.78 56.4445 55.75C57.2095 54.4494 57.9298 52.3179 59.3611 51.5C60.013 51.1275 60.49 50.04 61 49.5C61.4924 48.9787 62.1081 48.3853 62.4445 47.75C63.169 46.3815 64.4717 45.2509 65.25 43.8889C65.6928 43.1139 66.5912 42.5394 67.0556 41.75C67.5268 40.949 68.1874 39.7424 68.8056 39.0556C69.3447 38.4565 70.0248 37.5384 70.25 36.75C70.5472 35.7098 71.7802 35.0216 71.9861 33.8889C72.3187 32.0597 73.6453 30.3142 74.25 28.5" stroke="#C55E00" stroke-width="7" stroke-linecap="round"/>
<path d="M72 30C72 33.4185 70.8972 36.0473 70.0139 39.1389C69.4786 41.0125 68.4131 43.7538 67 45.25C65.9576 46.3537 64.7006 47.9658 63.875 49.25C62.8868 50.7871 61.5903 52.1001 60.6111 53.6389C59.5539 55.3002 57.3687 56.3067 55.8056 57.3889C55.0384 57.92 52.5 59.0588 52.5 60" stroke="#C55E00" stroke-width="7" stroke-linecap="round"/>
<path d="M51.5 57.75C54.0372 56.4246 56.7026 54.0475 58.75 52C59.7967 50.9533 60.7051 49.7633 61.625 48.6389C62.9802 46.9826 64.5521 45.6979 66 44.25C67.628 42.6221 68.9446 40.9462 70.3611 39.125C70.9722 38.3393 71.415 37.335 72.125 36.625C72.4768 36.2732 72.5822 35.8653 72.875 35.5139C73.2048 35.1182 73.3073 35.4246 73 35.75C70.5565 38.3373 69.5653 41.8006 66.5556 44C65.0803 45.0781 64.1546 46.9664 62.625 47.9861C61.163 48.9608 60.1126 50.9437 58.5 51.75" stroke="#C55E00" stroke-width="7" stroke-linecap="round"/>
<path d="M49.5 23C49.111 20.8117 49.002 19.2972 50.4445 17.6945C51.1603 16.8991 51.8305 15.962 52.5 15.125C53.0546 14.4318 54.3503 13.4348 55.1111 13C55.6042 12.7183 55.829 12.2427 56.375 12C56.9324 11.7523 58.0511 11.1491 58.5 10.75C59.3713 9.9755 61.614 9.48659 62.75 9.19446C64.3506 8.78287 65.9872 8.25002 67.625 8.25002C69.8975 8.25002 74.3228 7.71833 75.25 10.5" stroke="#C55E00" stroke-width="7" stroke-linecap="round"/>
<path d="M25.25 27.75C22.53 24.945 21.7112 20.4387 23.5556 16.75C24.2131 15.4349 25.7778 13.6607 27 12.875C28.1188 12.1557 28.8921 11.4417 30.1389 10.875C31.1156 10.431 32.8595 9.79171 33.9444 9.74998C35.8272 9.67756 37.6623 9.24998 39.625 9.24998C41.2207 9.24998 43.7817 8.79794 45.0556 9.94442C46.1464 10.9261 47.669 11.6731 48.875 12.6111C49.7464 13.2889 50.8796 14.5576 51.875 15C52.8004 15.4112 53.3461 16.548 54.25 17" stroke="#C55E00" stroke-width="7" stroke-linecap="round"/>
<path d="M25.5 20.25C24.8326 21.9601 24.6768 23.7261 24.75 25.5556C24.8013 26.8392 25.6739 27.921 26.0139 29.1111C26.2479 29.9302 27.5232 31.2732 28.125 31.875C31.1286 34.8786 34.9776 36.7276 38 39.75" stroke="#C55E00" stroke-width="7" stroke-linecap="round"/>
<path d="M38 39.75C36.6305 39.1957 35.794 38.2986 34.5556 37.5556C33.3953 36.8594 32.0477 36.1157 31.0556 35.1944C30.2602 34.4559 29.7121 33.5104 28.75 32.9444C28.5273 32.8134 27.9885 32.359 27.8056 32.1944C27.4024 31.8316 26.9225 31.628 26.5 31.25C25.8609 30.6781 25.2074 30.3036 24.8056 29.5C24.0548 27.9984 23.4498 26.5868 22.9445 24.9444C22.6102 23.8581 22.5 22.4395 22.5 21.3056C22.5 19.565 22.346 18.4452 24 17.5" stroke="#C55E00" stroke-width="7" stroke-linecap="round"/>
<path d="M24.25 22C24.25 29.8634 30.4658 37.3579 37.25 40.75" stroke="#C55E00" stroke-width="7" stroke-linecap="round"/>
<path d="M42.25 48.75C39.3836 48.6197 37.1042 45.731 35.75 43.3611C34.6669 41.4658 32.658 40.4844 31.625 38.625C29.9133 35.544 27.2639 33.3369 26 29.8611C25.6221 28.8219 25.2521 28.697 25.5139 29.875C25.6829 30.6354 26.4138 31.2672 26.5 32C26.612 32.9519 29.1208 34.6523 29.75 35.25C31.6318 37.0378 33.4104 38.9104 35.25 40.75C36.8821 42.3822 38.5972 44.1296 40 46" stroke="#C55E00" stroke-width="7" stroke-linecap="round"/>
<path d="M49.0381 33.5867C49.2952 34.39 49.3391 35.0228 49.3843 35.8368C49.3993 36.1063 52.3681 36.6459 52.8268 36.8753C53.8049 37.3643 54.2307 38.121 54.2307 36.6734C54.2307 35.1829 54.2307 33.6924 54.2307 32.202" stroke="#C55E00" stroke-width="7" stroke-linecap="round"/>
<path d="M37.2683 11.7779C38.4146 11.7779 40.1733 11.4389 41.2108 11.9894C42.2739 12.5535 43.0931 13.4486 43.9321 14.2876C44.509 14.8645 45.0425 15.4942 45.6149 16.0665C46.0284 16.4801 46.3982 16.6243 45.6341 16.1819C44.1291 15.3106 42.6121 14.379 41.0185 13.6818C40.4471 13.4318 39.7835 13.3297 39.2588 12.9798C38.9838 12.7965 38.54 12.5304 38.3068 12.2971C37.7779 11.7683 40.5242 11.7354 40.8742 11.7009C43.2025 11.4714 45.6156 11.3535 47.615 12.7202C48.1408 13.0796 48.571 13.5609 49.0189 14.0087C49.0554 14.0452 49.5533 14.528 49.4324 14.528C48.462 14.528 47.2119 14.039 46.3264 13.7203C45.2207 13.3222 44.1084 13.0432 42.9801 12.7298C41.7832 12.3974 39.7969 12.7582 38.9318 11.7009C38.4929 11.1645 41.5689 11.2586 41.73 11.2586C43.9909 11.2586 45.7477 11.7935 47.4611 13.3356C48.798 14.5388 49.8471 15.986 50.7305 17.5474C51.1974 18.3725 51.2687 18.6467 50.317 18.259C47.7455 17.2113 45.6947 15.2539 43.1628 14.1145C42.7547 13.9309 41.3979 13.8549 41.8454 13.8549C43.4896 13.8549 45.7129 15.3003 47.0476 16.1242C49.5162 17.6481 51.6001 19.7065 52.8075 22.3746C54.0586 25.139 54.2392 28.4344 54.6634 31.4039C54.7821 32.2347 54.965 33.0604 55.0577 33.8944C55.1058 34.3276 55.3659 35.5104 55.0577 35.2021C54.6781 34.8226 54.5855 33.9011 54.4711 33.4232C54.0762 31.774 53.5982 30.1466 53.1922 28.4999C52.8815 27.2399 52.5124 25.9721 51.8075 24.8939C51.5179 24.4509 51.4557 23.9959 51.9806 24.5958C53.2618 26.06 53.689 28.5044 54.0576 30.3365C54.5339 32.7041 54.5769 35.1593 54.5769 37.5677C54.5769 38.169 54.6573 38.8389 54.5384 39.4331C54.4484 39.8832 54.2387 39.8187 54.2307 39.3947C54.1729 36.3312 54.5641 33.405 55.1827 30.4038C55.6916 27.9345 56.5145 25.3379 56.6443 22.8073C56.6532 22.6331 56.8378 20.6909 56.9616 21.2014C57.1909 22.1474 56.9248 23.2299 56.7501 24.1535C56.7044 24.3949 56.3957 26.71 55.9616 25.5863C55.3581 24.0243 55.5771 21.8869 55.625 20.2591C55.6867 18.1608 56.3744 16.1044 57.2693 14.2203C57.6145 13.4935 58.2593 12.788 58.8271 12.2202C59.0274 12.0199 59.0858 12.3098 59.0386 12.4702C58.9008 12.9389 58.3155 13.2852 58.0386 13.6818C57.453 14.5206 56.8859 15.393 56.2404 16.1819C56.0396 16.4273 55.6725 16.6188 55.6154 16.105C55.4052 14.213 55.8959 12.8821 57.3078 11.4702C57.9462 10.8317 60.5499 9.63337 58.6925 11.2586C57.4198 12.3722 56.165 13.4732 55.1057 14.7972C54.9983 14.9315 54.0132 16.1982 54.3076 15.5473C54.8644 14.3166 56.5119 12.9594 57.6059 12.2202C58.5748 11.5655 59.5344 11.1203 60.6349 10.7393C62.5086 10.0908 64.4095 9.60954 66.3082 9.04695C66.3416 9.03706 66.7543 8.95707 66.4717 9.02772C65.7233 9.21482 65.1225 9.77147 64.5197 10.2201C63.104 11.2736 61.7207 12.3733 60.6733 13.8164C60.5909 13.9301 59.3317 15.612 59.4329 14.7011C59.5954 13.2389 61.8079 12.0421 62.8658 11.3163C64.9191 9.90745 66.8334 8.94931 69.2122 8.3546C70.2512 8.09487 69.704 8.18922 69.0103 8.68154C67.3512 9.85897 65.6242 11.0357 64.1735 12.4702C62.8277 13.8011 61.8827 15.4328 60.9041 17.0377C60.7125 17.352 60.0671 18.9123 60.1156 17.7974C60.2077 15.6802 61.71 13.2549 62.9619 11.6144C63.3966 11.0448 63.9078 10.283 64.6158 10.047" stroke="#D33504" stroke-opacity="0.5" stroke-width="7" stroke-linecap="round"/>
<path d="M53.1922 56.9532C50.9749 56.9532 49.1949 56.9975 47.3457 55.5685C46.3012 54.7614 44.4417 52.8761 44.4417 52.8761C44.4417 52.8761 45.957 55.4209 46.788 56.6455C47.3755 57.5113 47.8481 58.3769 48.5573 59.1649C48.9176 59.5651 49.6187 59.8984 50.0766 60.2419" stroke="#D33504" stroke-opacity="0.5" stroke-width="7" stroke-linecap="round"/>
<path d="M23.5945 20.7783C23.8297 23.5766 24.4087 25.5339 25.8639 27.8845C26.7865 29.3749 28.0354 30.5891 29.3063 31.7693C29.7456 32.1772 30.5021 32.8785 29.5756 31.952C27.4769 29.8533 25.9584 27.3038 24.4599 24.7593C24.0307 24.0304 23.6649 23.2655 23.2868 22.5092C23.1815 22.2986 22.9022 21.5512 22.9022 22.1822C22.9022 23.9669 24.1163 26.0768 24.7099 27.7498C25.0702 28.7651 25.6731 29.6166 26.1812 30.5481C26.4635 31.0656 26.9925 31.3551 27.2197 31.9231C27.6314 32.9524 25.6555 30.2329 25.3638 29.1634C24.9672 27.7092 26.9879 31.7096 27.662 33.0578C28.8231 35.3799 30.3687 37.8269 31.9219 39.9139C34.7832 43.7589 37.8862 47.4952 41.9416 50.0298" stroke="#D33504" stroke-opacity="0.5" stroke-width="7" stroke-linecap="round"/>
<path d="M42.1147 50.0298C42.9749 51.062 45.8028 53.8719 44.6725 53.1453C42.517 51.7597 40.6983 50.0943 38.9799 48.1932C38.2415 47.3762 37.3688 46.3276 38.5087 47.8951C39.5752 49.3615 40.9929 50.5035 42.2493 51.7991C43.1605 52.7388 43.8889 53.7581 44.961 54.53C45.9136 55.2159 46.8642 55.9545 47.865 56.5686C48.078 56.6993 49.1438 57.1263 48.5189 57.1263" stroke="#D33504" stroke-opacity="0.5" stroke-width="7" stroke-linecap="round"/>
<path d="M39.0889 28.5928C37.4741 28.0622 36.661 26.4028 36.0779 24.8939C35.591 23.634 34.9805 21.3916 35.7989 20.1309C36.7004 18.742 38.6081 18.5085 39.9844 19.3067C42.2499 20.6207 43.2753 23.9666 43.5664 26.3735C43.9249 29.3368 43.7561 32.3426 41.9571 34.8354C40.4379 36.9406 36.7885 36.3417 35.0916 34.8549C29.3261 29.8032 32.8963 18.08 40.9902 18.3204C44.7712 18.4327 48.187 21.2175 49.8091 24.4981C50.9769 26.86 51.6501 31.0174 49.5105 33.0574C46.9367 35.5115 42.2261 35.4971 38.9461 35.069C36.8935 34.8011 34.6956 34.1586 33.1188 32.7459C31.5449 31.3357 31.1852 29.1741 31.2045 27.1652C31.2349 24.0021 32.4806 20.337 35.5393 18.8914C36.8886 18.2537 38.5261 18.004 40.0039 18.236C42.6289 18.6481 44.4754 21.1457 45.8117 23.2327C48.4456 27.3461 49.5927 32.7718 49.0303 37.6257C48.7362 40.1643 47.1333 42.2464 44.449 42.1812C43.4873 42.1578 42.4598 42.0853 41.8533 41.2337C41.005 40.0426 40.647 38.4574 40.6852 37.0158C40.7958 32.8472 44.0315 29.8479 48.1543 29.6375C51.5014 29.4668 54.2161 32.0566 54.9615 35.1988C55.9103 39.1987 55.6917 44.5068 52.3269 47.3595C50.1677 49.1902 47.1869 49.6434 44.449 49.3063C43.3912 49.1761 42.2605 48.7819 41.6067 47.8787C40.243 45.9946 40.5772 42.6941 40.8929 40.5783C41.5845 35.9432 44.377 31.6059 49.3418 31.1495C52.8951 30.8229 55.4981 33.1331 56.6616 36.3798C58.2064 40.6901 58.3925 49.5494 52.1062 49.9422C50.0091 50.0733 49.6772 47.2935 49.5625 45.7243C49.4407 44.0593 49.4812 42.2953 50.1205 40.7276C50.6718 39.3758 51.6093 37.8464 53.151 37.5609C54.9788 37.2224 55.7257 38.511 56.0646 40.1241C56.6136 42.7371 56.3576 45.4572 54.3904 47.4244C52.8101 49.0048 49.8556 50.6915 47.5573 49.6373C46.2601 49.0422 45.6189 47.7146 45.1498 46.4446C44.3865 44.3777 44.2226 42.2007 44.2283 40.0138C44.2358 37.1998 45.2752 34.6067 48.2646 33.862C50.6109 33.2775 52.9435 34.1071 53.7155 36.5485C55.4093 41.9044 52.2397 48.8751 46.266 49.6178C45.6911 49.6893 44.9237 49.7824 44.4879 49.2933C43.8493 48.5766 43.7966 47.3429 43.8909 46.4511C44.2517 43.0401 47.0033 39.8277 50.3347 38.9885C56.3527 37.4725 56.9545 47.1364 56.8304 50.9546C56.7957 52.022 56.6381 53.0513 56.3891 54.0888C56.3572 54.2218 56.2589 54.9679 56.0841 55.1076C55.9378 55.2247 55.8469 55.1887 55.9349 54.9649C56.1531 54.4094 56.7389 53.8625 57.1029 53.3945C57.5938 52.7634 58.0179 52.0471 58.5305 51.4412C58.7009 51.2399 58.829 51.2055 58.829 51.4997C58.829 52.4346 58.0294 53.5175 57.661 54.3549C57.3286 55.1103 56.786 56.5093 55.7921 56.5093C54.862 56.5093 53.9319 56.5093 53.0017 56.5093C52.6955 56.5093 52.3192 56.3859 52.2944 56.7819C52.2494 57.5014 52.19 58.197 52.0803 58.9103C51.9967 59.4535 51.8756 59.6493 52.4047 59.8383C53.0158 60.0565 52.8977 59.7218 53.1705 59.3711C53.778 58.59 54.448 58.5382 55.2665 58.0213C55.5553 57.8389 55.753 57.5391 56.0257 57.327C56.4906 56.9653 57.0004 56.6865 57.4274 56.2757C58.1606 55.5701 58.779 55.0348 59.173 54.0499C59.8485 52.361 60.5285 50.6913 61.282 49.0338" stroke="#D33504" stroke-opacity="0.5" stroke-width="7" stroke-linecap="round"/>
<path d="M56.6097 50.3187C58.3675 49.9192 59.8233 48.4535 61.0678 47.2298C62.5624 45.7604 63.722 44.0283 64.5525 42.1033C65.179 40.6513 65.5352 39.0997 66.2332 37.6777C66.342 37.4561 66.7171 36.315 67.0574 36.315C67.5561 36.315 66.0742 40.6187 66.058 40.6627C64.9088 43.7887 63.9247 47.0589 62.1256 49.8904C61.7628 50.4612 60.5979 52.092 60.8407 51.4608C61.0743 50.8534 61.8729 50.326 62.3008 49.8709C63.6222 48.4656 64.7844 46.9192 66.0969 45.5037C66.5308 45.0358 66.9452 44.5636 67.265 44.0112C67.3759 43.8197 67.0065 44.7244 66.9276 44.8418C65.8964 46.3749 64.9647 48.1175 63.7349 49.501C63.5045 49.7602 62.2146 51.2906 63.2222 50.3576C65.0604 48.6555 66.8744 46.5246 68.2124 44.4135C68.7206 43.6117 68.7141 43.6239 68.1475 44.3875C67.6707 45.0303 67.0694 45.5611 66.5836 46.198C65.6494 47.423 64.7444 48.6932 63.9296 50.0007C63.419 50.82 62.932 51.6142 62.3332 52.3628C60.3682 54.819 65.735 47.0701 67.4986 44.4654C70.1826 40.5013 72.715 36.4292 75.2208 32.3501C75.6891 31.5876 76.7003 30.3511 76.7003 29.4105" stroke="#D33504" stroke-opacity="0.5" stroke-width="7" stroke-linecap="round"/>
<path d="M61.866 33.265C62.5172 31.087 63.799 29.0283 65.5973 27.6065C65.6836 27.5382 66.2403 27.1108 66.2916 27.4313C66.5032 28.7538 65.6513 30.3078 65.0976 31.4286C64.2494 33.1457 63.2857 34.8326 62.0477 36.302C61.0592 37.4753 59.7957 38.8081 58.2191 39.1183C56.8548 39.3867 56.3218 38.5923 56.2204 37.3143C56.0023 34.5661 57.4682 31.8016 58.9588 29.6051C60.2125 27.7578 61.7474 25.9966 63.5727 24.6928C64.3945 24.1058 65.6555 23.3918 66.6745 23.979C67.7378 24.5918 67.7185 26.6825 67.6544 27.7168C67.5456 29.4712 66.6246 31.1854 65.3637 32.389C64.4348 33.2757 63.0777 33.743 61.7881 33.5506C59.16 33.1585 58.3879 29.6435 58.3359 27.4767C58.2005 21.8432 63.4308 15.9053 69.095 15.3289C69.8211 15.255 70.8475 15.1838 71.2494 15.9389C71.9168 17.1928 71.8708 18.976 71.5219 20.3061C71.0723 22.0202 69.5402 26.0074 67.0768 25.4066C66.4073 25.2433 66.3502 24.39 66.3306 23.8298C66.2626 21.8889 66.7658 19.9805 67.7582 18.3139C68.4537 17.1459 69.6056 15.5376 71.1326 15.4717C72.4447 15.415 73.0719 17.2528 73.261 18.249C74.0671 22.4955 72.9075 26.7957 70.3409 30.2281C69.5041 31.3472 68.2118 32.346 66.7134 32.0386C65.5611 31.8022 65.2301 30.4717 65.1625 29.4754C64.9126 25.7895 67.2534 21.8837 70.3409 19.9362C71.2307 19.375 72.3568 19.0171 73.3778 19.469C74.2845 19.8703 74.4006 20.8395 74.481 21.7143C74.7033 24.1331 74.0879 26.4208 72.5667 28.3333C71.7186 29.3995 70.4484 29.5126 70.2371 27.9374C69.8721 25.2171 70.4161 22.6394 70.9509 20.0011C71.1816 18.863 71.6568 17.6114 71.6777 16.445C71.7185 14.1557 72.2617 11.9553 72.2617 9.67032C72.2617 9.18136 72.214 8.82231 71.9113 8.44386C71.6871 8.16367 72.1624 8.26865 72.3785 8.26865C73.0304 8.26865 73.7664 8.32871 74.3642 8.61907C75.4957 9.16866 76.142 9.96475 76.4732 11.1239C76.6211 11.6418 77.0288 12.0886 77.0507 12.6813C77.077 13.3918 77.2981 14.156 77.4076 14.8682C77.5556 15.8298 77.8684 16.6442 77.8684 17.6391C77.8684 18.8097 77.6511 19.7589 77.4011 20.8837C77.2506 21.5611 76.9423 22.3498 76.6743 22.9862C76.5819 23.2057 76.3629 23.6083 76.3629 23.8427C76.3629 24.2111 76.759 23.2194 76.9923 22.9342C77.5624 22.2375 77.5827 21.1518 77.7775 20.2996C77.8446 20.0061 78.3356 18.1464 78.3356 19.0213C78.3356 19.7224 78.425 20.4897 78.3096 21.1822C78.2287 21.6679 77.9351 22.089 77.8424 22.5708C77.7178 23.2189 77.4289 23.8248 77.2908 24.4462C77.1793 24.9482 76.9339 25.5262 76.9339 26.0231C76.9339 26.2548 76.8171 26.4289 76.8171 26.6655C76.8171 27.014 76.6534 26.6136 76.7133 26.4189C76.8493 25.9768 77.1903 25.6615 77.3103 25.2055C77.5306 24.3684 77.7515 23.4796 77.7515 22.6098C77.7515 21.4337 77.7282 20.0542 77.9852 18.898C78.1468 18.1706 78.4117 17.4117 78.4524 16.6787C78.4797 16.1874 78.414 15.7427 78.5692 15.277" stroke="#D33504" stroke-opacity="0.5" stroke-width="7" stroke-linecap="round"/>
<path d="M33.015 28.3592C31.2348 28.0408 29.8836 27.3648 28.4985 26.2048C27.3826 25.2702 27.4083 24.1773 27.4083 22.8045C27.4083 21.2893 27.4511 19.8006 28.0054 18.3723C28.4547 17.2145 29.2421 16.5384 30.2571 15.874C30.8589 15.4801 31.4569 15.033 32.1195 14.7449C32.5254 14.5684 32.2307 14.5717 31.9443 14.6475C29.7908 15.2176 28.5131 17.8114 27.4343 19.5469C27.2525 19.8394 26.9825 20.8334 26.8503 20.0401C26.5151 18.0292 27.3273 15.7491 28.7711 14.3361C30.0072 13.1262 31.4263 12.0182 33.015 11.3121C33.684 11.0147 35.8626 10.7216 35.1305 10.7216C34.6579 10.7216 34.1813 10.7032 33.7094 10.7281C32.72 10.7801 31.9622 11.4615 31.2629 12.0973C30.1053 13.1497 28.9828 14.2865 27.8756 15.3938C27.4348 15.8346 26.9402 16.0587 26.6426 16.6267C26.3206 17.2414 25.8647 17.8721 25.4227 18.4048C24.8359 19.1119 23.8732 19.7476 22.9957 20.0401C22.5609 20.185 22.6193 19.8538 22.6193 19.5404C22.6193 18.772 22.6935 18.0117 22.9438 17.2886C23.4653 15.782 24.9655 14.2204 26.2663 13.2913C26.9235 12.8218 27.5741 12.3393 28.226 11.8637C28.8155 11.4335 29.4855 11.1717 30.0949 10.78C31.4351 9.91841 32.7801 9.59484 34.2739 9.08629C35.5442 8.65387 37.1661 8.73588 38.5114 8.73588C39.9405 8.73588 41.1583 9.08843 42.5282 9.41075C43.4028 9.61654 44.2087 9.66049 45.046 10.0791C45.6081 10.3602 46.1411 10.7061 46.6878 11.0136C47.853 11.669 48.543 13.0521 49.6014 13.8753" stroke="#D33504" stroke-opacity="0.5" stroke-width="7" stroke-linecap="round"/>
<path d="M41.7611 56.1279C42.6908 56.6901 43.2484 57.5779 44.1379 58.1708C44.77 58.5922 45.4116 59.0262 46.0206 59.4661C46.9186 60.1146 48.0196 60.7751 49.065 61.1485C49.5662 61.3275 49.9903 61.8365 49.2787 61.3621C47.8806 60.4301 45.9742 59.7382 44.8856 58.4379C44.73 58.252 44.1331 57.8471 44.3582 57.9372C44.7611 58.0983 45.1279 58.5355 45.4598 58.7984C46.4536 59.5857 47.347 60.3784 48.4909 60.9349C49.5935 61.4713 50.815 61.5137 51.9759 61.8362C52.096 61.8695 52.5906 61.8319 52.6703 61.923C52.6898 61.9453 51.1787 62.0191 51.0613 62.0231C49.795 62.066 48.4125 62.345 47.1689 61.9897C46.6363 61.8375 46.1885 61.5054 45.6801 61.3021C44.7559 60.9324 47.5424 62.0084 48.4909 62.3102C48.7869 62.4044 49.0503 62.4591 49.3321 62.5906C49.9012 62.8562 48.3841 61.7663 47.9033 61.3621C45.9458 59.7167 44.2228 57.7131 42.5222 55.8074C41.7293 54.9189 40.9184 54.0186 40.1988 53.0701C40.0513 52.8757 39.0988 51.9701 39.6513 52.5226C40.3679 53.2392 41.2976 53.8703 42.1283 54.4454C42.8781 54.9645 43.6109 55.5065 44.3248 56.0744C44.9709 56.5884 44.1087 55.8926 43.9109 55.7607C42.5199 54.8333 41.3672 53.6006 40.319 52.309C39.2773 51.0255 38.4283 49.6646 37.4615 48.3432C37.0657 47.8023 36.7938 47.1442 36.3532 46.6407C36.1925 46.4571 35.9537 46.211 36.2597 46.5406C37.9018 48.3089 39.3206 50.2957 40.9732 52.0686C43.1234 54.3752 45.4338 56.541 48.0369 58.3177C48.6593 58.7425 50.6774 59.769 49.9997 59.4393C44.1143 56.5762 38.455 52.6812 34.644 47.275C34.3534 46.8626 34.1333 46.4117 33.8896 45.9731C33.6673 45.5729 34.6522 46.2543 34.7241 46.3002C35.6387 46.8845 36.4263 47.5757 37.2078 48.3232C38.1876 49.2604 39.3518 49.9176 40.379 50.7867C41.5686 51.7933 42.8072 52.7393 44.1045 53.6042C45.0357 54.225 45.7587 55.1097 46.6882 55.7072C47.7512 56.3906 48.8109 57.1263 49.9864 57.63C50.3544 57.7878 50.6183 58.1165 50.9878 58.2643C51.4468 58.4479 50.3664 58.2498 50.2868 58.2309C49.4332 58.0287 46.9507 57.2208 47.7231 57.6367C48.9204 58.2814 50.5605 58.5314 51.9092 58.5314C51.9969 58.5314 53.6758 58.5619 53.3646 58.745C53.0657 58.9208 51.2549 59.4637 51.2549 59.7331C51.2549 60.0821 53.3608 60.4244 53.6584 60.4542C54.7401 60.5623 51.6067 61.2133 50.5338 61.3889C49.8344 61.5033 50.3064 61.4241 50.6674 61.2887C51.4307 61.0025 52.1944 60.7012 52.9106 60.3073C53.7263 59.8586 55.9876 58.2169 55.2607 58.7984C54.7922 59.1732 54.1435 59.4128 53.6117 59.673C53.228 59.8608 52.0583 60.3231 52.4833 60.2806C53.257 60.2032 54.3093 59.1329 54.8535 58.6515C55.5466 58.0383 56.2463 57.3922 56.9966 56.8489C57.1364 56.7476 57.4932 56.4374 57.3638 56.8689C57.1018 57.7423 56.2374 58.4131 55.708 59.1189C55.4048 59.5232 54.9439 59.9867 54.5263 60.2806C54.408 60.3638 54.1857 60.7481 54.2659 60.6277C54.4349 60.3743 55.0976 60.0762 55.3542 59.9067C55.9722 59.4984 56.6547 59.1498 57.3037 58.7917C57.3403 58.7715 58.1609 58.3614 57.8111 58.4379C57.409 58.5258 57.0313 58.6475 56.6628 58.8318C56.6387 58.8439 55.9951 59.1867 55.9951 59.1322C55.9951 58.8458 56.959 58.1149 57.1368 57.9372C58.3196 56.7543 59.4429 55.4273 60.6953 54.3252C61.2314 53.8535 61.6857 53.3418 62.1374 52.7897C62.6631 52.1471 62.4359 52.7951 62.0907 53.1502C61.2396 54.0256 60.1569 54.6881 59.2398 55.5003C58.8782 55.8206 58.537 56.1685 58.1716 56.4817C57.4216 57.1246 59.7426 55.283 60.5084 54.6591C60.9101 54.3317 61.2069 53.9455 61.5299 53.5508C61.94 53.0495 61.5822 53.9147 61.4698 54.0849C60.9165 54.9223 58.9084 57.1739 59.5069 56.3682C60.6044 54.8908 62.2329 53.8682 63.2724 52.309C63.5919 51.8298 63.9335 51.4475 64.3273 51.0538C64.5043 50.8768 64.7333 50.6931 64.8614 50.4796C64.9461 50.3383 64.5535 50.9957 64.414 51.1473C63.9817 51.6172 63.6199 52.1299 63.2457 52.6428C62.7085 53.3789 62.3409 54.2602 61.7101 54.9261C61.535 55.1109 61.3494 55.2869 61.1693 55.4669C60.8406 55.7956 61.6751 55.1589 61.7635 55.0463C62.1165 54.5971 62.5558 54.3023 62.9119 53.8445C63.4158 53.1966 63.9174 52.4831 64.5275 51.9284C65.2494 51.2722 65.8094 50.0003 66.2167 49.1043C66.6597 48.1297 67.0185 47.132 67.8991 46.4471C68.2925 46.1411 68.3323 45.7509 68.6269 45.3722C68.9617 44.9416 69.4349 44.5286 69.882 44.2305" stroke="#A22802" stroke-opacity="0.5" stroke-width="3" stroke-linecap="round"/>
<path d="M22.4569 28.2037C22.4794 29.151 23.1459 29.8535 23.7527 30.5361C24.2527 31.0986 24.5885 31.8758 25.1204 32.4077C25.581 32.8683 25.8669 33.4488 26.2722 33.9699C26.7333 34.5627 27.3787 35.197 27.7408 35.8488C28.1105 36.5144 28.4561 37.1499 28.8062 37.85C29.1298 38.4973 29.2973 39.2642 29.7132 39.8585C29.9652 40.2185 30.0719 40.7486 30.4259 41.0319C31.2549 41.695 31.528 43.1702 32.4344 43.6234" stroke="#A22802" stroke-opacity="0.5" stroke-width="3" stroke-linecap="round"/>
<path d="M32.6631 8.58764C34.1593 8.55115 35.2669 7.49397 36.8191 7.49397C37.4856 7.49397 38.2415 7.27524 39.0064 7.27524C40.6986 7.27524 42.5133 7.12081 44.0373 7.88283C45.4412 8.58475 46.7867 9.10679 48.1933 9.85144C48.8996 10.2254 49.9884 10.6694 50.5994 11.2125C51.1039 11.661 52.2635 11.6971 52.568 12.3061" stroke="#A22802" stroke-opacity="0.5" stroke-width="3" stroke-linecap="round"/>
<path d="M74.5436 7.32294C78.9135 10.501 80.8427 14.0433 80.8427 19.5712" stroke="#A22802" stroke-opacity="0.5" stroke-width="3" stroke-linecap="round"/>
<path d="M45.2995 64.1915C47.1045 64.6428 48.3615 65.8035 50.2504 65.8035C51.6873 65.8035 46.937 64.5966 46.937 64.537C46.937 64.4313 49.076 64.6521 49.3293 64.6521C50.5105 64.6521 51.6917 64.6521 52.8729 64.6521C53.493 64.6521 53.9047 64.4452 54.3953 64.0636C54.7096 63.8191 55.4855 63.278 54.7279 63.8461C53.4856 64.7779 52.5249 65.8032 51.0563 66.4943C50.7689 66.6295 49.7069 66.7024 50.1864 67.1339C50.4178 67.3422 51.6553 67.8759 50.5446 67.8759C49.9616 67.8759 47.4995 67.0955 48.0628 67.2363C48.9059 67.4471 49.5786 68.0353 48.4721 66.9037C48.1165 66.5399 46.3608 63.9562 47.0905 64.8824C47.5464 65.4611 47.979 66.0965 48.293 66.7246" stroke="#2B8B2F" stroke-opacity="0.2" stroke-width="3" stroke-linecap="round"/>
<path d="M44.8389 64.4218C45.6683 64.5798 47.7545 65.3782 48.5233 64.6521C48.7338 64.4533 50.3368 63.0878 50.5446 63.3216C51.0216 63.8583 47.603 68.2816 47.1928 69.0273C46.7554 69.8227 46.9626 71.0614 46.566 69.4751C46.4217 68.8979 46.0824 66.2986 46.4636 65.7267C46.9211 65.0405 46.9467 67.3048 47.1417 68.1062C47.4976 69.5695 47.8249 71.0968 48.0628 72.5838C48.2164 73.5439 48.293 74.368 48.293 75.347C48.293 76.1494 47.9176 75.1151 47.8837 74.8609C47.725 73.671 47.6284 72.0503 47.8837 70.8695C48.0446 70.125 48.3231 69.5014 48.6257 68.8098C48.7211 68.5918 48.9839 67.6219 48.9839 68.3365C48.9839 69.6542 48.3756 70.875 48.0628 72.1488C47.6842 73.6902 47.3719 75.216 47.3719 76.8054C47.3719 77.2831 47.1631 79.686 47.1417 79.1082C46.9713 74.5091 49.1397 69.867 51.1587 65.8291C51.5223 65.1018 53.3912 62.1338 52.0798 64.3195C50.8901 66.3023 48.6521 67.8087 48.0628 70.1659C47.8253 71.1156 47.7329 70.4094 47.9348 69.8461C48.4446 68.4241 49.979 67.4215 51.0307 66.4175C51.5913 65.8825 52.5612 65.7874 52.8985 65.1127" stroke="#2B8B2F" stroke-opacity="0.2" stroke-width="3" stroke-linecap="round"/>
<path d="M44.8389 64.4218C44.8389 67.2107 44.8389 75.5773 44.8389 72.7884C44.8389 70.7819 45.2387 68.8002 45.8752 66.8909C46.2451 65.781 46.4871 65.6371 46.7963 66.7501C47.168 68.0884 47.2991 69.7157 47.3719 71.0998C47.4154 71.9259 47.3719 69.4452 47.3719 68.6179C47.3719 66.6057 47.6022 68.4075 47.6022 69.4878C47.6022 70.2384 47.9084 73.0191 47.1417 73.4025" stroke="#2B8B2F" stroke-opacity="0.2" stroke-width="3" stroke-linecap="round"/>
<path d="M47.1416 76.6263C47.1416 73.863 47.1416 71.0997 47.1416 68.3364C47.1416 67.027 46.6811 65.8185 46.6811 64.5753C46.6811 63.8378 46.883 66.0388 46.9114 66.7757C46.9272 67.1882 47.401 66.6053 47.8453 66.4942C48.8486 66.2434 49.8299 65.901 50.826 65.6243C51.4361 65.4548 52.3326 65.1126 51.1586 65.1126C49.8301 65.1126 48.4369 65.249 47.1289 64.9975C46.1081 64.8012 46.2887 64.6567 45.7088 64.0124C45.1766 63.421 45.8892 63.7676 46.2333 63.974C47.1437 64.5202 48.6454 65.0875 49.7258 65.1126C51.4924 65.1537 52.3479 64.6837 53.7044 63.6286C54.1711 63.2657 55.882 62.8354 55.2908 62.8354C54.9096 62.8354 54.1584 63.6483 53.8068 63.8461C52.8476 64.3857 52.0334 64.9656 51.0051 65.394C49.748 65.9178 48.0627 65.7076 48.0627 67.2106C48.0627 71.6803 48.293 85.0874 48.293 80.6177C48.293 76.2144 53.7887 63.8864 52.2972 68.0294C50.723 72.4023 49.0474 76.7617 48.9838 81.462C48.961 83.151 48.7536 84.8261 48.7536 86.5281" stroke="#2B8B2F" stroke-opacity="0.2" stroke-width="3" stroke-linecap="round"/>
<path d="M58.6553 84.2253C59.5425 80.7508 61.5113 77.3269 62.9026 74.0165C64.2551 70.7984 65.5493 67.64 67.1243 64.5242C67.2744 64.2271 68.1606 61.9144 68.6722 61.9144C69.0076 61.9144 68.0116 64.0926 67.9558 64.2555C67.2298 66.3776 66.4813 68.5216 65.6147 70.588C64.6234 72.952 65.6649 70.1517 66.1009 69.2704C67.9481 65.5357 70.398 62.1265 72.4206 58.4859C73.0642 57.3274 73.7829 56.2025 74.7233 55.262C74.8944 55.091 75.9248 54.4283 75.6572 54.6736C74.1951 56.0139 72.8815 57.4747 71.7809 59.1255C71.3523 59.7685 70.7606 60.4378 70.3993 61.07C70.1775 61.4582 70.4013 60.0947 70.4377 60.0082C71.075 58.4946 72.0691 57.1495 73.0219 55.8249C74.6103 53.6166 76.4816 51.6872 78.3565 49.8122C79.1418 49.027 79.8857 48.2108 80.9919 47.8421" stroke="#2B8B2F" stroke-opacity="0.2" stroke-width="3" stroke-linecap="round"/>
<path d="M18.818 63.5007C22.0845 63.5007 25.0917 63.6571 28.2592 64.5369C28.6595 64.6481 29.9156 64.6521 29.5001 64.6521C28.3434 64.6521 27.4744 63.9757 26.3659 63.7821C25.7068 63.6671 25.033 63.5954 24.3701 63.5007C24.3262 63.4944 23.3968 63.3162 23.3979 63.3216C23.6417 64.5406 27.4843 65.7635 28.4127 66.1744C30.1716 66.9529 32.0973 67.755 33.6579 68.8993C34.2903 69.3631 34.8328 69.5671 34.0161 68.797C33.1134 67.9459 31.9782 67.2146 30.8434 66.7245C29.1053 65.974 32.1599 67.3404 32.5193 67.5561C35.23 69.1825 38.7074 71.0728 40.4125 73.863C40.5441 74.0783 40.7037 74.0848 40.4893 73.799C39.8414 72.9352 38.8005 72.3482 37.9307 71.7394C37.6567 71.5476 34.4105 69.3962 35.564 70.5496C37.3537 72.3393 39.4905 73.9491 41.3848 75.654C42.4046 76.5719 43.2929 77.6132 44.2632 78.5836C44.4706 78.791 44.8389 79.5421 44.8389 79.2489C44.8389 77.9116 41.9979 76.0446 41.0522 75.1935C39.6266 73.9104 38.0919 72.7601 36.6002 71.5603C36.236 71.2673 35.8398 70.9206 35.5512 70.5496C35.4183 70.3787 36.8259 71.0092 36.9968 71.0997C38.8453 72.0783 40.713 73.0452 42.5234 74.0933C43.2119 74.4919 44.8585 76.1579 45.7088 76.0634C46.2274 76.0058 45.1059 72.7528 44.9157 72.4942C44.1603 71.4668 42.9385 70.8371 41.8454 70.2298C41.2849 69.9184 42.1836 70.5171 42.3571 70.6392C43.1131 71.1712 43.8391 71.7118 44.4935 72.3662C44.6076 72.4804 45.8369 74.5893 46.1694 73.9909C46.7626 72.9232 46.7275 71.4675 47.1928 70.3321C47.6243 69.2794 48.0628 68.5119 48.0628 70.1914C48.0628 70.6253 48.3033 73.0903 47.7813 73.3513C47.6045 73.4397 47.6022 71.5954 47.6022 71.5347C47.6022 70.1408 47.5483 68.7379 47.7173 67.3514C47.9549 65.4035 48.0855 66.9707 48.05 67.9654C47.9908 69.6211 48.1147 72.307 47.4231 73.863C46.9719 74.8783 47.7566 71.6468 48.1651 70.6136C48.7547 69.1222 50.1096 64.6091 50.1096 66.2128C50.1096 68.2914 48.3332 70.6919 47.6278 72.5837C47.1771 73.7924 46.6811 75.0933 46.6811 76.396C46.6811 77.1444 47.0857 74.9137 47.1928 74.6306C47.6197 73.5026 48.0418 72.3993 48.6256 71.3428C48.682 71.2408 49.3665 69.7961 49.4316 70.0891C49.773 71.6255 49.4852 73.7274 49.3165 75.2702C49.0673 77.5487 48.9001 80.057 48.3442 82.2808C48.0884 83.304 48.1749 80.6242 48.2163 80.4386C48.9199 77.2855 50.6921 74.362 51.632 71.2532C51.865 70.4825 52.438 68.1709 52.438 68.9761C52.438 71.07 51.1858 73.197 50.3655 75.0656C49.7328 76.5066 49.3124 78.691 48.3442 79.9013C47.58 80.8566 47.6022 83.3331 47.6022 84.43C47.6022 84.9332 47.6022 85.4364 47.6022 85.9396C47.6022 87.5703 47.4041 83.6376 47.4231 83.3298C47.5198 81.7611 48.2131 80.2166 48.293 78.6988C48.3414 77.7799 48.293 80.901 48.293 81.2318C48.293 84.3139 47.8967 87.5872 47.5894 90.6602C47.4962 91.5924 47.4618 93.2917 47.0905 94.1271C46.7562 94.8792 46.7328 95.8302 46.3357 96.545C46.2683 96.6662 45.8076 97.5713 45.7728 97.4149C45.4673 96.0403 45.7339 94.2565 45.76 92.8478C45.7804 91.7491 45.9903 90.6512 45.9903 89.5216" stroke="#2B8B2F" stroke-opacity="0.2" stroke-width="3" stroke-linecap="round"/>
<path d="M45.9903 89.5217C45.9903 91.8159 45.9903 94.1101 45.9903 96.4043C45.9903 97.131 45.9903 99.1113 45.9903 97.0823C45.9903 94.0981 46.6024 91.1144 46.8986 88.1528C46.9581 87.5576 47.1417 86.576 47.1417 87.8842C47.1417 89.6259 46.7843 91.2457 46.6939 92.963C46.6268 94.2377 46.6074 95.3898 46.3485 96.6474C46.213 97.3052 46.2907 99.231 45.9903 98.6303C45.402 97.4538 45.5347 95.7203 45.4146 94.447C45.2529 92.7333 45.2995 91.0107 45.2995 89.2914C45.2995 88.8302 45.5297 87.909 45.5297 88.8692C45.5297 90.1381 45.1069 91.2793 44.8901 92.5152C44.6848 93.6851 44.6086 94.7903 44.6086 95.9693" stroke="#2B8B2F" stroke-opacity="0.2" stroke-width="3" stroke-linecap="round"/>
<path d="M44.6086 95.9693C44.6086 98.1433 44.7118 95.3662 44.8389 94.7156C45.1472 93.1378 45.4879 91.6287 45.7088 90.0333C45.7942 89.4167 45.9156 88.7972 45.9775 88.1784C45.98 88.1534 45.9737 87.5346 46.0415 87.5515C46.5221 87.6717 46.2256 91.369 46.2206 91.8244C46.1993 93.7369 45.8722 95.83 45.2483 97.6324C45.1185 98.0074 45.0692 99.2062 45.0692 98.8093C45.0692 96.6976 46.0659 94.9555 46.3485 92.899C46.6475 90.7225 46.4598 88.4773 46.7323 86.2978C46.8658 85.2295 47.2322 84.143 47.4231 83.074C47.8224 80.8379 49.3817 78.6541 49.4444 76.396C49.4912 74.7112 49.4444 73.0155 49.4444 71.33C49.4444 70.2851 49.9147 66.8445 48.7536 66.264" stroke="#2B8B2F" stroke-opacity="0.2" stroke-width="3" stroke-linecap="round"/>
<path d="M47.8325 64.8823C47.1036 64.865 46.431 64.8432 45.8112 64.4218C45.2693 64.0533 46.5157 64.9494 46.6811 65.0998C47.6624 65.9919 48.7628 66.9492 49.7898 67.748C50.2399 68.098 48.4822 66.8479 48.1907 66.6094C47.5011 66.0452 49.8449 67.6591 49.9817 67.9782C50.0903 68.2316 48.088 67.9354 47.7813 67.6968C47.6515 67.5959 47.8211 71.1413 47.8325 71.5603C47.8866 73.5639 47.8325 70.4289 47.8325 69.8972C47.8325 68.2785 47.9845 66.5871 48.2418 69.3855C48.3867 70.9611 47.8533 75.644 48.3186 74.1317C48.7644 72.6828 49.8902 71.5959 50.7748 70.4089C51.5632 69.3511 52.1315 67.9978 53.1032 67.0955C54.1915 66.0849 51.8451 67.7045 51.6192 67.8759C50.7563 68.5305 49.9378 69.2264 49.3164 70.1275C49.0623 70.496 48.9388 70.7031 48.9966 70.0379C49.1581 68.1808 51.3372 65.6768 52.8473 64.6521C53.1003 64.4804 53.4191 64.1323 53.2183 64.6009C52.699 65.8127 51.977 66.9175 51.5168 68.1573C50.8232 70.0264 50.5957 71.842 50.5957 73.8118C50.5957 74.6601 50.3659 74.5536 50.826 74.3236" stroke="#2B8B2F" stroke-opacity="0.2" stroke-width="3" stroke-linecap="round"/>
<path d="M47.6022 63.2705C47.0285 62.8334 45.1268 61.8043 45.696 62.247C46.4858 62.8613 47.8183 63.2008 48.7408 63.6159C49.0131 63.7384 50.1861 64.2867 49.4444 63.6798C48.6695 63.0459 46.6159 60.8459 47.3463 61.5306C48.0814 62.2197 48.854 62.8516 49.5339 63.6031C49.7613 63.8543 50.5148 64.6765 49.6363 64.2811C48.9801 63.9858 48.3165 63.7277 47.6534 63.4496C47.2712 63.2893 46.1442 63.136 46.5148 62.9506C46.8991 62.7585 49.2448 64.9103 49.6491 65.2022C52.1336 66.9966 47.3933 63.015 48.9071 64.2939C49.0169 64.3867 51.3463 65.9994 51.3505 65.9826C51.569 65.1088 48.2347 63.5244 47.6534 63.1809C46.6994 62.6172 48.6977 64.366 48.9327 64.6009C50.5165 66.1848 48.8623 64.5319 47.9604 63.9101C47.0016 63.2491 46.0143 62.6296 45.0948 61.9144C44.5011 61.4526 45.0651 61.9597 45.2995 62.1191C46.2323 62.7535 47.0829 63.7017 48.0627 64.1916" stroke="#2B8B2F" stroke-opacity="0.2" stroke-width="3" stroke-linecap="round"/>
<path d="M43.2108 7.6803C45.607 8.02758 47.2047 9.06785 48.8834 10.7465C49.3673 11.2304 49.678 12.2937 50.2632 12.5863" stroke="#8B362B" stroke-opacity="0.2" stroke-width="3" stroke-linecap="round"/>
<path d="M50.2632 12.5862C53.0588 14.4679 53.9427 17.2706 53.9427 20.5585" stroke="#8B362B" stroke-opacity="0.2" stroke-width="3" stroke-linecap="round"/>
<path d="M48.1475 10.2173C48.7351 11.7597 49.2576 12.9443 50.1353 14.3235C50.3323 14.6331 50.5337 15.0669 50.5014 14.4543C50.4539 13.552 49.514 12.6507 48.9322 12.0481C48.4757 11.5754 47.0636 10.2146 47.5983 10.5965C49.1831 11.7285 50.7808 12.5427 52.1492 13.9966C53.1576 15.068 54.4874 16.1754 55.1569 17.5144C55.3502 17.9009 55.5161 18.3603 55.1569 17.7497C54.5531 16.7233 53.4856 15.8514 52.7245 14.9382C51.9842 14.0497 50.9454 12.6257 49.9391 12.0219C48.7166 11.2884 51.812 14.1869 52.5676 15.3959C53.5981 17.0447 54.2004 18.8646 54.9215 20.6529C55.2482 21.463 55.4446 22.406 55.4446 23.2814C55.4446 23.8626 55.418 22.5499 55.3138 22.3268C54.6848 20.9789 54.0366 19.4861 53.2738 18.2205C52.7994 17.4335 52.0456 15.5795 51.2076 15.1605" stroke="#8B362B" stroke-opacity="0.2" stroke-width="3" stroke-linecap="round"/>
<path d="M46.9706 10.4527C48.9289 10.5004 50.5952 12.241 51.2599 14.0358C51.4273 14.4877 51.8795 15.5567 52.2668 15.8666C52.777 16.2748 53.0907 18.2985 53.0907 17.6451C53.0907 16.6599 51.4004 15.4094 50.8807 14.6897C50.0939 13.6003 49.4022 12.4394 48.6183 11.3419C48.2456 10.82 46.6056 9.75297 47.1275 10.1257C48.5522 11.1434 50.1751 11.8002 51.443 13.0681C52.6439 14.269 53.7535 16.1056 54.6077 17.5667C55.5832 19.2353 56.5614 20.8767 57.21 22.6929C57.5322 23.5949 56.6601 22.1144 56.5169 21.9344C55.1126 20.1689 53.4398 18.642 52.1361 16.7951C50.7978 14.8993 45.7761 10.0686 47.5721 11.5381C49.6712 13.2555 51.6862 14.8443 53.3784 17.0174C54.7622 18.7945 55.6454 20.8756 56.8569 22.6929" stroke="#8B362B" stroke-opacity="0.2" stroke-width="3" stroke-linecap="round"/>
<g filter="url(#filter0_d_160_2)">
<path d="M87 42C76.6 43.2 63 65.8333 57.5 77L58 90C72 73.5 93.5 41.25 87 42Z" stroke="#1E582E"/>
</g>
<path d="M26.9442 62.7249C26.4384 62.7249 24.9207 62.7249 25.4266 62.7249C25.9436 62.7249 26.4909 62.8025 26.983 62.8025C28.1601 62.8025 24.629 62.8025 23.4519 62.8025" stroke="#0FB84E" stroke-width="3" stroke-linecap="round"/>
<g filter="url(#filter1_d_160_2)">
<path d="M11.5 68C21.2831 54.4541 38 64.3333 44.5 70L43.5 86.9999C38 81 25.7037 77.718 19 73C13 68.7773 9.03017 71.4198 11.5 68Z" stroke="#1E582E"/>
</g>
<path d="M38.5853 80.0311C37.6367 79.7587 36.6986 79.3746 35.7957 78.9748C35.452 78.8226 35.1547 78.6173 34.8386 78.4186C34.7176 78.3426 34.3034 78.2461 34.4462 78.2461C34.9875 78.2461 35.6855 78.574 36.1795 78.7592C36.9798 79.0593 37.7835 79.4201 38.5508 79.7983C38.8663 79.9538 39.0769 80.0686 38.6327 79.7724C37.6179 79.0959 36.7104 78.3038 35.6535 77.6857C34.5845 77.0605 31.3149 75.2981 32.3767 75.9352C32.6675 76.1096 32.9826 76.3076 33.2606 76.5C33.2662 76.5039 33.3908 76.6216 33.3296 76.5604C33.0177 76.2485 32.7079 75.9345 32.394 75.6248C30.8584 74.1096 29.0569 72.7056 27.2719 71.4944C27.2327 71.4677 26.9484 71.2858 27.0779 71.2658C27.5021 71.2006 28.0365 71.2302 28.4619 71.2788C28.9125 71.3303 28.9358 71.4362 28.449 71.4124C27.9772 71.3894 27.542 71.2538 27.0995 71.1063" stroke="#17D064" stroke-width="3" stroke-linecap="round"/>
<g filter="url(#filter2_d_160_2)">
<path d="M56.5 62L58 99.5C53.5 100.167 44.4 101.1 44 99.5C43.5 97.5 46.5 60.5 44 60.5C42.6766 60.5 47.8885 63.0589 52 63.5C54.102 63.7255 54.8085 61.8309 56.5 62Z" stroke="#0E4910" stroke-width="2"/>
</g>
<g filter="url(#filter3_d_160_2)">
<path d="M75 5.99997C67 2.79997 57.8333 7.83333 53.5 10.5C41 2.50002 28.5 5.99999 24 10.5C16.015 18.485 19.6667 27.1667 23 33C28.8333 42.8333 42.8 62.8 52 64C72.4 51.6 80.5 30.8333 82 22C83 18 83 9.19997 75 5.99997Z" stroke="#400C0C" stroke-width="2"/>
</g>
</g>
<defs>
<filter id="filter0_d_160_2" x="54.9955" y="39.4873" width="39.6989" height="57.8162" filterUnits="userSpaceOnUse" color-interpolation-filters="sRGB">
<feFlood flood-opacity="0" result="BackgroundImageFix"/>
<feColorMatrix in="SourceAlpha" type="matrix" values="0 0 0 0 0 0 0 0 0 0 0 0 0 0 0 0 0 0 127 0" result="hardAlpha"/>
<feOffset dx="2" dy="2"/>
<feGaussianBlur stdDeviation="2"/>
<feColorMatrix type="matrix" values="0 0 0 0 0 0 0 0 0 0 0 0 0 0 0 0 0 0 0.25 0"/>
<feBlend mode="normal" in2="BackgroundImageFix" result="effect1_dropShadow_160_2"/>
<feBlend mode="normal" in="SourceGraphic" in2="effect1_dropShadow_160_2" result="shape"/>
</filter>
<filter id="filter1_d_160_2" x="8.25476" y="58.6848" width="42.7588" height="35.5239" filterUnits="userSpaceOnUse" color-interpolation-filters="sRGB">
<feFlood flood-opacity="0" result="BackgroundImageFix"/>
<feColorMatrix in="SourceAlpha" type="matrix" values="0 0 0 0 0 0 0 0 0 0 0 0 0 0 0 0 0 0 127 0" result="hardAlpha"/>
<feOffset dx="2" dy="2"/>
<feGaussianBlur stdDeviation="2"/>
<feColorMatrix type="matrix" values="0 0 0 0 0 0 0 0 0 0 0 0 0 0 0 0 0 0 0.25 0"/>
<feBlend mode="normal" in2="BackgroundImageFix" result="effect1_dropShadow_160_2"/>
<feBlend mode="normal" in="SourceGraphic" in2="effect1_dropShadow_160_2" result="shape"/>
</filter>
<filter id="filter2_d_160_2" x="40.7902" y="57.5" width="24.2449" height="49.8835" filterUnits="userSpaceOnUse" color-interpolation-filters="sRGB">
<feFlood flood-opacity="0" result="BackgroundImageFix"/>
<feColorMatrix in="SourceAlpha" type="matrix" values="0 0 0 0 0 0 0 0 0 0 0 0 0 0 0 0 0 0 127 0" result="hardAlpha"/>
<feOffset dx="2" dy="2"/>
<feGaussianBlur stdDeviation="2"/>
<feColorMatrix type="matrix" values="0 0 0 0 0 0 0 0 0 0 0 0 0 0 0 0 0 0 0.25 0"/>
<feBlend mode="normal" in2="BackgroundImageFix" result="effect1_dropShadow_160_2"/>
<feBlend mode="normal" in="SourceGraphic" in2="effect1_dropShadow_160_2" result="shape"/>
</filter>
<filter id="filter3_d_160_2" x="16.1996" y="1.96948" width="73.2545" height="69.0676" filterUnits="userSpaceOnUse" color-interpolation-filters="sRGB">
<feFlood flood-opacity="0" result="BackgroundImageFix"/>
<feColorMatrix in="SourceAlpha" type="matrix" values="0 0 0 0 0 0 0 0 0 0 0 0 0 0 0 0 0 0 127 0" result="hardAlpha"/>
<feOffset dx="2" dy="2"/>
<feGaussianBlur stdDeviation="2"/>
<feColorMatrix type="matrix" values="0 0 0 0 0 0 0 0 0 0 0 0 0 0 0 0 0 0 0.25 0"/>
<feBlend mode="normal" in2="BackgroundImageFix" result="effect1_dropShadow_160_2"/>
<feBlend mode="normal" in="SourceGraphic" in2="effect1_dropShadow_160_2" result="shape"/>
</filter>
<clipPath id="clip0_160_2">
<rect width="100" height="100" fill="white"/>
</clipPath>
</defs>
</svg>
